<svg class="svg-icon" style="width: 1em;height: 1em;vertical-align: middle;fill: currentColor;overflow: hidden;" viewBox="0 0 1024 1024" version="1.1" xmlns="http://www.w3.org/2000/svg"><path d="M743.68 176.61952h-448l-220.16 240.52736v345.6c0 56.54528 45.85472 102.4 102.4 102.4h683.52c56.54528 0 102.4-45.85472 102.4-102.4v-345.6l-220.16-240.52736z m-416.43008 71.68h384.8704l176.52736 192.8704h-193.87392c0 0.28672 0.04096 0.57344 0.04096 0.84992 0 94.57664-76.94336 171.52-171.52 171.52-94.5664 0-171.52-76.94336-171.52-171.52 0-0.27648 0.04096-0.5632 0.0512-0.84992h-201.12384l176.54784-192.8704z m534.19008 545.16736h-683.52c-16.93696 0-30.72-13.78304-30.72-30.72v-249.89696h143.4112c30.33088 99.75808 123.02336 172.36992 232.69376 172.36992 109.68064 0 202.36288-72.61184 232.69376-172.36992h136.17152v249.89696a30.7712 30.7712 0 0 1-30.73024 30.72z" fill="#3E3A39" /></svg>